G04 Layer_Color=8388736*
%FSAX24Y24*%
%MOIN*%
G70*
G01*
G75*
G04:AMPARAMS|DCode=63|XSize=48mil|YSize=63mil|CornerRadius=9mil|HoleSize=0mil|Usage=FLASHONLY|Rotation=270.000|XOffset=0mil|YOffset=0mil|HoleType=Round|Shape=RoundedRectangle|*
%AMROUNDEDRECTD63*
21,1,0.0480,0.0450,0,0,270.0*
21,1,0.0300,0.0630,0,0,270.0*
1,1,0.0180,-0.0225,-0.0150*
1,1,0.0180,-0.0225,0.0150*
1,1,0.0180,0.0225,0.0150*
1,1,0.0180,0.0225,-0.0150*
%
%ADD63ROUNDEDRECTD63*%
G04:AMPARAMS|DCode=64|XSize=67.1mil|YSize=47.4mil|CornerRadius=8.9mil|HoleSize=0mil|Usage=FLASHONLY|Rotation=0.000|XOffset=0mil|YOffset=0mil|HoleType=Round|Shape=RoundedRectangle|*
%AMROUNDEDRECTD64*
21,1,0.0671,0.0295,0,0,0.0*
21,1,0.0492,0.0474,0,0,0.0*
1,1,0.0178,0.0246,-0.0148*
1,1,0.0178,-0.0246,-0.0148*
1,1,0.0178,-0.0246,0.0148*
1,1,0.0178,0.0246,0.0148*
%
%ADD64ROUNDEDRECTD64*%
%ADD65R,0.0434X0.0454*%
%ADD66O,0.0218X0.0631*%
G04:AMPARAMS|DCode=67|XSize=55.2mil|YSize=43.4mil|CornerRadius=12.9mil|HoleSize=0mil|Usage=FLASHONLY|Rotation=180.000|XOffset=0mil|YOffset=0mil|HoleType=Round|Shape=RoundedRectangle|*
%AMROUNDEDRECTD67*
21,1,0.0552,0.0177,0,0,180.0*
21,1,0.0295,0.0434,0,0,180.0*
1,1,0.0257,-0.0148,0.0089*
1,1,0.0257,0.0148,0.0089*
1,1,0.0257,0.0148,-0.0089*
1,1,0.0257,-0.0148,-0.0089*
%
%ADD67ROUNDEDRECTD67*%
G04:AMPARAMS|DCode=68|XSize=67.1mil|YSize=47.4mil|CornerRadius=8.9mil|HoleSize=0mil|Usage=FLASHONLY|Rotation=90.000|XOffset=0mil|YOffset=0mil|HoleType=Round|Shape=RoundedRectangle|*
%AMROUNDEDRECTD68*
21,1,0.0671,0.0295,0,0,90.0*
21,1,0.0492,0.0474,0,0,90.0*
1,1,0.0178,0.0148,0.0246*
1,1,0.0178,0.0148,-0.0246*
1,1,0.0178,-0.0148,-0.0246*
1,1,0.0178,-0.0148,0.0246*
%
%ADD68ROUNDEDRECTD68*%
G04:AMPARAMS|DCode=69|XSize=55.2mil|YSize=43.4mil|CornerRadius=12.9mil|HoleSize=0mil|Usage=FLASHONLY|Rotation=270.000|XOffset=0mil|YOffset=0mil|HoleType=Round|Shape=RoundedRectangle|*
%AMROUNDEDRECTD69*
21,1,0.0552,0.0177,0,0,270.0*
21,1,0.0295,0.0434,0,0,270.0*
1,1,0.0257,-0.0089,-0.0148*
1,1,0.0257,-0.0089,0.0148*
1,1,0.0257,0.0089,0.0148*
1,1,0.0257,0.0089,-0.0148*
%
%ADD69ROUNDEDRECTD69*%
G04:AMPARAMS|DCode=70|XSize=48mil|YSize=63mil|CornerRadius=9mil|HoleSize=0mil|Usage=FLASHONLY|Rotation=180.000|XOffset=0mil|YOffset=0mil|HoleType=Round|Shape=RoundedRectangle|*
%AMROUNDEDRECTD70*
21,1,0.0480,0.0450,0,0,180.0*
21,1,0.0300,0.0630,0,0,180.0*
1,1,0.0180,-0.0150,0.0225*
1,1,0.0180,0.0150,0.0225*
1,1,0.0180,0.0150,-0.0225*
1,1,0.0180,-0.0150,-0.0225*
%
%ADD70ROUNDEDRECTD70*%
%ADD71O,0.0907X0.0198*%
%ADD72O,0.0198X0.0907*%
G04:AMPARAMS|DCode=73|XSize=71mil|YSize=39.5mil|CornerRadius=11.9mil|HoleSize=0mil|Usage=FLASHONLY|Rotation=270.000|XOffset=0mil|YOffset=0mil|HoleType=Round|Shape=RoundedRectangle|*
%AMROUNDEDRECTD73*
21,1,0.0710,0.0157,0,0,270.0*
21,1,0.0472,0.0395,0,0,270.0*
1,1,0.0237,-0.0079,-0.0236*
1,1,0.0237,-0.0079,0.0236*
1,1,0.0237,0.0079,0.0236*
1,1,0.0237,0.0079,-0.0236*
%
%ADD73ROUNDEDRECTD73*%
G04:AMPARAMS|DCode=74|XSize=39.5mil|YSize=71mil|CornerRadius=11.9mil|HoleSize=0mil|Usage=FLASHONLY|Rotation=270.000|XOffset=0mil|YOffset=0mil|HoleType=Round|Shape=RoundedRectangle|*
%AMROUNDEDRECTD74*
21,1,0.0395,0.0472,0,0,270.0*
21,1,0.0157,0.0710,0,0,270.0*
1,1,0.0237,-0.0236,-0.0079*
1,1,0.0237,-0.0236,0.0079*
1,1,0.0237,0.0236,0.0079*
1,1,0.0237,0.0236,-0.0079*
%
%ADD74ROUNDEDRECTD74*%
G04:AMPARAMS|DCode=75|XSize=39.5mil|YSize=47.4mil|CornerRadius=11.9mil|HoleSize=0mil|Usage=FLASHONLY|Rotation=270.000|XOffset=0mil|YOffset=0mil|HoleType=Round|Shape=RoundedRectangle|*
%AMROUNDEDRECTD75*
21,1,0.0395,0.0236,0,0,270.0*
21,1,0.0157,0.0474,0,0,270.0*
1,1,0.0237,-0.0118,-0.0079*
1,1,0.0237,-0.0118,0.0079*
1,1,0.0237,0.0118,0.0079*
1,1,0.0237,0.0118,-0.0079*
%
%ADD75ROUNDEDRECTD75*%
G04:AMPARAMS|DCode=76|XSize=48mil|YSize=48mil|CornerRadius=14mil|HoleSize=0mil|Usage=FLASHONLY|Rotation=90.000|XOffset=0mil|YOffset=0mil|HoleType=Round|Shape=RoundedRectangle|*
%AMROUNDEDRECTD76*
21,1,0.0480,0.0200,0,0,90.0*
21,1,0.0200,0.0480,0,0,90.0*
1,1,0.0280,0.0100,0.0100*
1,1,0.0280,0.0100,-0.0100*
1,1,0.0280,-0.0100,-0.0100*
1,1,0.0280,-0.0100,0.0100*
%
%ADD76ROUNDEDRECTD76*%
G04:AMPARAMS|DCode=77|XSize=48mil|YSize=54mil|CornerRadius=14mil|HoleSize=0mil|Usage=FLASHONLY|Rotation=90.000|XOffset=0mil|YOffset=0mil|HoleType=Round|Shape=RoundedRectangle|*
%AMROUNDEDRECTD77*
21,1,0.0480,0.0260,0,0,90.0*
21,1,0.0200,0.0540,0,0,90.0*
1,1,0.0280,0.0130,0.0100*
1,1,0.0280,0.0130,-0.0100*
1,1,0.0280,-0.0130,-0.0100*
1,1,0.0280,-0.0130,0.0100*
%
%ADD77ROUNDEDRECTD77*%
G04:AMPARAMS|DCode=78|XSize=43.4mil|YSize=67.1mil|CornerRadius=12.9mil|HoleSize=0mil|Usage=FLASHONLY|Rotation=0.000|XOffset=0mil|YOffset=0mil|HoleType=Round|Shape=RoundedRectangle|*
%AMROUNDEDRECTD78*
21,1,0.0434,0.0413,0,0,0.0*
21,1,0.0177,0.0671,0,0,0.0*
1,1,0.0257,0.0089,-0.0207*
1,1,0.0257,-0.0089,-0.0207*
1,1,0.0257,-0.0089,0.0207*
1,1,0.0257,0.0089,0.0207*
%
%ADD78ROUNDEDRECTD78*%
G04:AMPARAMS|DCode=79|XSize=43mil|YSize=48mil|CornerRadius=12.8mil|HoleSize=0mil|Usage=FLASHONLY|Rotation=180.000|XOffset=0mil|YOffset=0mil|HoleType=Round|Shape=RoundedRectangle|*
%AMROUNDEDRECTD79*
21,1,0.0430,0.0225,0,0,180.0*
21,1,0.0175,0.0480,0,0,180.0*
1,1,0.0255,-0.0088,0.0113*
1,1,0.0255,0.0088,0.0113*
1,1,0.0255,0.0088,-0.0113*
1,1,0.0255,-0.0088,-0.0113*
%
%ADD79ROUNDEDRECTD79*%
G04:AMPARAMS|DCode=80|XSize=36mil|YSize=75mil|CornerRadius=11mil|HoleSize=0mil|Usage=FLASHONLY|Rotation=270.000|XOffset=0mil|YOffset=0mil|HoleType=Round|Shape=RoundedRectangle|*
%AMROUNDEDRECTD80*
21,1,0.0360,0.0530,0,0,270.0*
21,1,0.0140,0.0750,0,0,270.0*
1,1,0.0220,-0.0265,-0.0070*
1,1,0.0220,-0.0265,0.0070*
1,1,0.0220,0.0265,0.0070*
1,1,0.0220,0.0265,-0.0070*
%
%ADD80ROUNDEDRECTD80*%
%ADD81O,0.1064X0.0356*%
G04:AMPARAMS|DCode=82|XSize=39.5mil|YSize=43.4mil|CornerRadius=11.9mil|HoleSize=0mil|Usage=FLASHONLY|Rotation=0.000|XOffset=0mil|YOffset=0mil|HoleType=Round|Shape=RoundedRectangle|*
%AMROUNDEDRECTD82*
21,1,0.0395,0.0197,0,0,0.0*
21,1,0.0157,0.0434,0,0,0.0*
1,1,0.0237,0.0079,-0.0098*
1,1,0.0237,-0.0079,-0.0098*
1,1,0.0237,-0.0079,0.0098*
1,1,0.0237,0.0079,0.0098*
%
%ADD82ROUNDEDRECTD82*%
G04:AMPARAMS|DCode=83|XSize=43.4mil|YSize=45.4mil|CornerRadius=12.9mil|HoleSize=0mil|Usage=FLASHONLY|Rotation=270.000|XOffset=0mil|YOffset=0mil|HoleType=Round|Shape=RoundedRectangle|*
%AMROUNDEDRECTD83*
21,1,0.0434,0.0197,0,0,270.0*
21,1,0.0177,0.0454,0,0,270.0*
1,1,0.0257,-0.0098,-0.0089*
1,1,0.0257,-0.0098,0.0089*
1,1,0.0257,0.0098,0.0089*
1,1,0.0257,0.0098,-0.0089*
%
%ADD83ROUNDEDRECTD83*%
G04:AMPARAMS|DCode=84|XSize=134mil|YSize=90.7mil|CornerRadius=24.7mil|HoleSize=0mil|Usage=FLASHONLY|Rotation=180.000|XOffset=0mil|YOffset=0mil|HoleType=Round|Shape=RoundedRectangle|*
%AMROUNDEDRECTD84*
21,1,0.1340,0.0413,0,0,180.0*
21,1,0.0846,0.0907,0,0,180.0*
1,1,0.0493,-0.0423,0.0207*
1,1,0.0493,0.0423,0.0207*
1,1,0.0493,0.0423,-0.0207*
1,1,0.0493,-0.0423,-0.0207*
%
%ADD84ROUNDEDRECTD84*%
G04:AMPARAMS|DCode=85|XSize=43.4mil|YSize=90.7mil|CornerRadius=12.9mil|HoleSize=0mil|Usage=FLASHONLY|Rotation=180.000|XOffset=0mil|YOffset=0mil|HoleType=Round|Shape=RoundedRectangle|*
%AMROUNDEDRECTD85*
21,1,0.0434,0.0650,0,0,180.0*
21,1,0.0177,0.0907,0,0,180.0*
1,1,0.0257,-0.0089,0.0325*
1,1,0.0257,0.0089,0.0325*
1,1,0.0257,0.0089,-0.0325*
1,1,0.0257,-0.0089,-0.0325*
%
%ADD85ROUNDEDRECTD85*%
G04:AMPARAMS|DCode=86|XSize=67.1mil|YSize=63.1mil|CornerRadius=17.8mil|HoleSize=0mil|Usage=FLASHONLY|Rotation=90.000|XOffset=0mil|YOffset=0mil|HoleType=Round|Shape=RoundedRectangle|*
%AMROUNDEDRECTD86*
21,1,0.0671,0.0276,0,0,90.0*
21,1,0.0315,0.0631,0,0,90.0*
1,1,0.0356,0.0138,0.0157*
1,1,0.0356,0.0138,-0.0157*
1,1,0.0356,-0.0138,-0.0157*
1,1,0.0356,-0.0138,0.0157*
%
%ADD86ROUNDEDRECTD86*%
%ADD87C,0.0591*%
%ADD88C,0.0631*%
%ADD89R,0.0631X0.0631*%
%ADD90O,0.0671X0.0671*%
%ADD91C,0.0360*%
G04:AMPARAMS|DCode=92|XSize=67.1mil|YSize=86.7mil|CornerRadius=18.8mil|HoleSize=0mil|Usage=FLASHONLY|Rotation=270.000|XOffset=0mil|YOffset=0mil|HoleType=Round|Shape=RoundedRectangle|*
%AMROUNDEDRECTD92*
21,1,0.0671,0.0492,0,0,270.0*
21,1,0.0295,0.0867,0,0,270.0*
1,1,0.0375,-0.0246,-0.0148*
1,1,0.0375,-0.0246,0.0148*
1,1,0.0375,0.0246,0.0148*
1,1,0.0375,0.0246,-0.0148*
%
%ADD92ROUNDEDRECTD92*%
%ADD93O,0.0867X0.0671*%
%ADD94C,0.0130*%
%ADD95C,0.0493*%
%ADD96C,0.0493*%
%ADD97C,0.0946*%
%ADD98C,0.0780*%
%ADD99C,0.0380*%
D63*
X023820Y025290D02*
D03*
Y025990D02*
D03*
X023010Y025290D02*
D03*
Y025990D02*
D03*
X034921Y033444D02*
D03*
Y032744D02*
D03*
X034000Y033444D02*
D03*
Y032744D02*
D03*
X014360Y020820D02*
D03*
Y021520D02*
D03*
X015220D02*
D03*
Y020820D02*
D03*
D64*
X022950Y027504D02*
D03*
Y026716D02*
D03*
X035554Y026093D02*
D03*
Y026880D02*
D03*
X033120Y032934D02*
D03*
Y032146D02*
D03*
X032326Y032939D02*
D03*
Y032152D02*
D03*
X030480Y032994D02*
D03*
Y032206D02*
D03*
X029700Y032994D02*
D03*
Y032206D02*
D03*
X034350Y030024D02*
D03*
Y029236D02*
D03*
X030300Y030024D02*
D03*
Y029236D02*
D03*
X033600Y030024D02*
D03*
Y029236D02*
D03*
X029520Y030024D02*
D03*
Y029236D02*
D03*
X033909Y026880D02*
D03*
Y026093D02*
D03*
X033109Y026880D02*
D03*
Y026093D02*
D03*
X030679Y026880D02*
D03*
Y026093D02*
D03*
X029879Y026880D02*
D03*
Y026093D02*
D03*
X013530Y020776D02*
D03*
Y021564D02*
D03*
D65*
X024460Y029570D02*
D03*
X025700D02*
D03*
Y028730D02*
D03*
X024460D02*
D03*
D66*
X030993Y028543D02*
D03*
X031249D02*
D03*
X031505D02*
D03*
X031761D02*
D03*
X032017D02*
D03*
X032273D02*
D03*
X032529D02*
D03*
X032784D02*
D03*
X030993Y030748D02*
D03*
X031249D02*
D03*
X031505D02*
D03*
X031761D02*
D03*
X032017D02*
D03*
X032273D02*
D03*
X032529D02*
D03*
X032784D02*
D03*
D67*
X033990Y031843D02*
D03*
Y031017D02*
D03*
X031410Y032187D02*
D03*
Y033013D02*
D03*
X032309Y026959D02*
D03*
Y026132D02*
D03*
X029061Y026959D02*
D03*
Y026132D02*
D03*
X034709Y026959D02*
D03*
Y026132D02*
D03*
X031479Y026959D02*
D03*
Y026132D02*
D03*
X029290Y015264D02*
D03*
Y014438D02*
D03*
X030160Y015264D02*
D03*
Y014438D02*
D03*
D68*
X019414Y027040D02*
D03*
X018626D02*
D03*
X035106Y016170D02*
D03*
X035894D02*
D03*
X034564D02*
D03*
X033776D02*
D03*
X027796Y016130D02*
D03*
X028584D02*
D03*
X027796Y016960D02*
D03*
X028584D02*
D03*
X012906Y028050D02*
D03*
X013694D02*
D03*
X016114Y018360D02*
D03*
X015326D02*
D03*
X019814Y031690D02*
D03*
X019026D02*
D03*
X025624Y014410D02*
D03*
X024836D02*
D03*
X019414Y027992D02*
D03*
X018626D02*
D03*
X024836Y013600D02*
D03*
X025624D02*
D03*
X021070Y027040D02*
D03*
X021857D02*
D03*
X021090Y031690D02*
D03*
X021877D02*
D03*
X018454Y015890D02*
D03*
X017666D02*
D03*
Y015020D02*
D03*
X018454D02*
D03*
D69*
X021070Y029010D02*
D03*
X021897D02*
D03*
X021453Y017480D02*
D03*
X020627D02*
D03*
X022077Y023470D02*
D03*
X022903D02*
D03*
X017052Y026310D02*
D03*
X016226D02*
D03*
X017658Y017480D02*
D03*
X018485D02*
D03*
X020627Y016560D02*
D03*
X021453D02*
D03*
X025357Y020120D02*
D03*
X026183D02*
D03*
D70*
X021770Y027992D02*
D03*
X021070D02*
D03*
X015306Y029000D02*
D03*
X014606D02*
D03*
X013000D02*
D03*
X013700D02*
D03*
X020753Y018340D02*
D03*
X021453D02*
D03*
X022777Y024350D02*
D03*
X022077D02*
D03*
X016352Y025410D02*
D03*
X017052D02*
D03*
X018358Y018350D02*
D03*
X017658D02*
D03*
X026175Y020940D02*
D03*
X025475D02*
D03*
D71*
X016695Y023476D02*
D03*
Y023280D02*
D03*
Y023083D02*
D03*
Y022886D02*
D03*
Y022689D02*
D03*
Y022492D02*
D03*
Y022295D02*
D03*
Y022098D02*
D03*
Y021902D02*
D03*
Y021705D02*
D03*
Y021508D02*
D03*
Y021311D02*
D03*
Y021114D02*
D03*
Y020917D02*
D03*
Y020720D02*
D03*
Y020524D02*
D03*
X021105D02*
D03*
Y020720D02*
D03*
Y020917D02*
D03*
Y021114D02*
D03*
Y021311D02*
D03*
Y021508D02*
D03*
Y021705D02*
D03*
Y021902D02*
D03*
Y022098D02*
D03*
Y022295D02*
D03*
Y022492D02*
D03*
Y022689D02*
D03*
Y022886D02*
D03*
Y023083D02*
D03*
Y023280D02*
D03*
Y023476D02*
D03*
D72*
X017424Y019795D02*
D03*
X017620D02*
D03*
X017817D02*
D03*
X018014D02*
D03*
X018211D02*
D03*
X018408D02*
D03*
X018605D02*
D03*
X018802D02*
D03*
X018998D02*
D03*
X019195D02*
D03*
X019392D02*
D03*
X019589D02*
D03*
X019786D02*
D03*
X019983D02*
D03*
X020180D02*
D03*
X020376D02*
D03*
Y024205D02*
D03*
X020180D02*
D03*
X019983D02*
D03*
X019786D02*
D03*
X019589D02*
D03*
X019392D02*
D03*
X019195D02*
D03*
X018998D02*
D03*
X018802D02*
D03*
X018605D02*
D03*
X018408D02*
D03*
X018211D02*
D03*
X018014D02*
D03*
X017817D02*
D03*
X017620D02*
D03*
X017424D02*
D03*
D73*
X036006Y018046D02*
D03*
X035534D02*
D03*
X035062D02*
D03*
X034589D02*
D03*
X034117D02*
D03*
X033644D02*
D03*
X033172D02*
D03*
X032699D02*
D03*
X032227D02*
D03*
X031754D02*
D03*
X031282D02*
D03*
X030810D02*
D03*
X030337D02*
D03*
X029865D02*
D03*
X029392D02*
D03*
X028920D02*
D03*
X028447D02*
D03*
X030337Y023361D02*
D03*
X030810D02*
D03*
X031282D02*
D03*
X031754D02*
D03*
X032227D02*
D03*
X032699D02*
D03*
X033172D02*
D03*
X033644D02*
D03*
X034117D02*
D03*
X034589D02*
D03*
X035062D02*
D03*
X035534D02*
D03*
X036006D02*
D03*
X029865D02*
D03*
X029392D02*
D03*
X028920D02*
D03*
X028447D02*
D03*
D74*
X027660Y018381D02*
D03*
Y019050D02*
D03*
Y019523D02*
D03*
Y019995D02*
D03*
Y020468D02*
D03*
Y020940D02*
D03*
Y021412D02*
D03*
Y021885D02*
D03*
Y022357D02*
D03*
Y023027D02*
D03*
D75*
X035810Y019326D02*
D03*
Y019877D02*
D03*
Y020428D02*
D03*
Y020979D02*
D03*
Y021531D02*
D03*
Y022082D02*
D03*
D76*
X030890Y016610D02*
D03*
X033122D02*
D03*
D77*
X030890Y015620D02*
D03*
Y014636D02*
D03*
X033122Y015620D02*
D03*
Y014636D02*
D03*
D78*
X026729Y016960D02*
D03*
X026171D02*
D03*
X026729Y015740D02*
D03*
X026170D02*
D03*
D79*
X023937Y013805D02*
D03*
X022323D02*
D03*
Y014435D02*
D03*
X023937D02*
D03*
X021857Y025615D02*
D03*
X020243D02*
D03*
Y026245D02*
D03*
X021857D02*
D03*
D80*
X015200Y023122D02*
D03*
Y022650D02*
D03*
Y022170D02*
D03*
D81*
X019575Y029010D02*
D03*
Y029510D02*
D03*
Y030010D02*
D03*
Y030510D02*
D03*
X017645Y029010D02*
D03*
Y029510D02*
D03*
Y030010D02*
D03*
Y030510D02*
D03*
D82*
X021483Y030066D02*
D03*
X021109Y030854D02*
D03*
X021857D02*
D03*
D83*
X017430Y033900D02*
D03*
Y032660D02*
D03*
D84*
X013700Y032822D02*
D03*
D85*
X014606Y030578D02*
D03*
X013700D02*
D03*
X012794D02*
D03*
D86*
X014141Y027100D02*
D03*
X012959D02*
D03*
D87*
X014940Y036770D02*
D03*
Y013790D02*
D03*
X032760Y036770D02*
D03*
D88*
X027900Y024990D02*
D03*
Y025990D02*
D03*
Y027990D02*
D03*
Y028990D02*
D03*
Y026990D02*
D03*
D89*
Y029990D02*
D03*
D90*
X023793Y027480D02*
D03*
X026607D02*
D03*
D91*
X024944Y027787D02*
D03*
X025456D02*
D03*
X025712Y027393D02*
D03*
X025200D02*
D03*
X024688D02*
D03*
D92*
X013050Y025550D02*
D03*
X014160Y017690D02*
D03*
X024820Y024580D02*
D03*
D93*
X013050Y024550D02*
D03*
X014160Y016690D02*
D03*
X024820Y025580D02*
D03*
D94*
X034520Y014670D02*
D03*
Y035920D02*
D03*
X013270D02*
D03*
Y014670D02*
D03*
X023960Y019080D02*
D03*
X032010Y016220D02*
D03*
Y015029D02*
D03*
X016271Y035716D02*
D03*
X031133D02*
D03*
X022216Y034732D02*
D03*
X024184D02*
D03*
X023200Y036700D02*
D03*
X029106D02*
D03*
D95*
X023960Y017580D02*
D03*
D96*
X023460D02*
D03*
X023960Y018080D02*
D03*
X023460D02*
D03*
X023960Y018580D02*
D03*
X023460D02*
D03*
Y019080D02*
D03*
X023960Y019580D02*
D03*
X023460D02*
D03*
D97*
X018279Y034732D02*
D03*
X020247D02*
D03*
X026153D02*
D03*
X028121D02*
D03*
X019263Y036700D02*
D03*
X021232D02*
D03*
X025168D02*
D03*
X027137D02*
D03*
D98*
X032880Y013500D02*
D03*
X031880D02*
D03*
X030880D02*
D03*
X029880D02*
D03*
X028880D02*
D03*
D99*
X013820Y032230D02*
D03*
X013270D02*
D03*
X014370D02*
D03*
X014920Y032222D02*
D03*
Y032784D02*
D03*
X012170Y031660D02*
D03*
Y034470D02*
D03*
Y033908D02*
D03*
Y032784D02*
D03*
Y032222D02*
D03*
Y033346D02*
D03*
X014920Y034470D02*
D03*
X014370D02*
D03*
X012720Y034470D02*
D03*
X014920Y033908D02*
D03*
X014370D02*
D03*
X013270D02*
D03*
X012720D02*
D03*
X013820D02*
D03*
X015470Y034470D02*
D03*
X016020Y034470D02*
D03*
X015470Y033908D02*
D03*
X016020D02*
D03*
X015470Y033346D02*
D03*
X016020D02*
D03*
X015470Y032784D02*
D03*
X016020D02*
D03*
X015470Y032222D02*
D03*
X016020D02*
D03*
X015470Y031660D02*
D03*
X016020D02*
D03*
X012720D02*
D03*
X014370D02*
D03*
X014920D02*
D03*
X013270D02*
D03*
X013820D02*
D03*
X012720Y033346D02*
D03*
Y032784D02*
D03*
Y032222D02*
D03*
X014920Y033346D02*
D03*
M02*
